<?xml version="1.0" standalone="no"?>
<!DOCTYPE svg PUBLIC "-//W3C//DTD SVG 20010904//EN"
 "http://www.w3.org/TR/2001/REC-SVG-20010904/DTD/svg10.dtd">
<svg version="1.0" xmlns="http://www.w3.org/2000/svg"
 width="192.000000pt" height="192.000000pt" viewBox="0 0 192.000000 192.000000"
 preserveAspectRatio="xMidYMid meet">

<g transform="translate(0.000000,192.000000) scale(0.100000,-0.100000)"
fill="#000000" stroke="none">
<path d="M835 1830 c-419 -66 -731 -412 -752 -835 -23 -478 346 -886 827 -912
246 -13 475 69 650 234 389 365 367 990 -48 1324 -88 71 -230 142 -337 169
-93 24 -254 33 -340 20z m-488 -1090 c-2 -11 -7 -23 -12 -27 -4 -5 -5 -2 -1 5
4 7 1 12 -8 12 -9 0 -16 -5 -16 -12 0 -6 -3 -9 -6 -5 -3 3 -3 15 1 26 8 28 46
29 42 1z m25 -7 c-3 -16 -7 -22 -10 -15 -4 13 4 42 11 42 2 0 2 -12 -1 -27z
m78 5 c0 -18 -6 -23 -24 -23 -18 0 -22 3 -14 12 6 7 14 10 19 7 5 -3 6 2 3 10
-3 9 -1 16 5 16 6 0 11 -10 11 -22z m53 15 c-15 -3 -23 -12 -24 -26 0 -12 -3
-16 -6 -9 -9 22 5 42 29 41 l23 -2 -22 -4z m55 -1 c14 10 15 10 5 -1 -6 -7
-10 -19 -9 -25 2 -6 1 -7 -2 -3 -2 4 -11 2 -20 -5 -13 -11 -15 -10 -9 5 4 10
7 24 8 30 0 8 2 8 6 -1 4 -10 8 -10 21 0z m77 -2 c-11 -5 -14 -9 -7 -9 6 -1
12 -9 12 -18 0 -15 -2 -14 -15 3 -20 27 -19 34 8 33 21 0 21 -1 2 -9z m58 3
c-7 -2 -13 -11 -13 -18 0 -8 -3 -16 -7 -18 -5 -3 -8 6 -8 19 0 18 5 24 20 23
11 0 14 -3 8 -6z m47 -15 c0 -17 -6 -23 -24 -23 -22 0 -22 1 -8 23 8 12 18 22
23 22 5 0 9 -10 9 -22z m80 -3 c0 -14 -4 -25 -9 -25 -4 0 -6 11 -3 25 2 14 6
25 8 25 2 0 4 -11 4 -25z m42 -17 c-6 -6 -7 0 -4 19 5 21 7 23 10 9 2 -10 0
-22 -6 -28z m72 33 c8 -12 -4 -41 -16 -41 -6 0 -5 7 2 15 15 19 7 30 -16 21
-10 -4 -14 -12 -9 -24 5 -13 3 -14 -6 -5 -6 6 -9 19 -6 27 7 17 42 22 51 7z
m57 -6 c7 19 8 19 8 -2 1 -27 -17 -40 -25 -18 -6 13 -8 14 -15 3 -7 -10 -9
-10 -9 3 0 25 13 31 24 12 9 -16 10 -16 17 2z m87 -10 c0 -14 -5 -25 -10 -25
-5 0 -6 5 -3 10 3 6 -1 10 -9 10 -9 0 -16 -5 -16 -12 0 -6 -2 -9 -5 -7 -2 3
-2 15 2 27 8 31 41 29 41 -3z m69 5 c3 -11 10 -17 15 -14 5 3 7 11 5 18 -3 6
4 12 14 12 12 0 18 -5 14 -14 -3 -7 -5 -17 -5 -21 0 -4 -17 -7 -37 -8 -21 0
-32 2 -25 4 19 7 15 35 -5 31 -10 -2 -17 -12 -16 -22 1 -11 -2 -15 -8 -9 -15
15 1 43 23 43 11 0 22 -8 25 -20z m74 -11 c-5 -13 -10 -19 -10 -12 -1 15 10
45 15 40 3 -2 0 -15 -5 -28z m60 16 c7 19 8 19 8 -2 1 -27 -17 -40 -25 -18 -6
14 -8 14 -21 -2 -8 -10 -13 -13 -10 -8 2 6 7 19 11 30 7 20 7 20 18 0 11 -19
11 -19 19 0z m51 8 c-18 -3 -23 -10 -19 -24 3 -10 1 -19 -4 -19 -10 0 -12 33
-2 43 3 4 16 6 27 6 19 -2 18 -2 -2 -6z m-562 -23 c0 -11 -4 -20 -9 -20 -5 0
-7 9 -4 20 3 11 7 20 9 20 2 0 4 -9 4 -20z m580 -5 c0 -8 -4 -15 -8 -15 -5 0
-9 7 -9 15 0 8 4 15 9 15 4 0 8 -7 8 -15z m-655 -85 c-3 -5 -2 -10 4 -10 5 0
12 6 15 13 3 6 4 1 3 -13 -3 -35 -37 -40 -37 -6 0 14 5 26 11 26 5 0 7 -4 4
-10z m85 -11 c0 -12 4 -17 11 -14 6 4 8 12 6 19 -3 6 3 12 12 12 12 0 16 -7
13 -21 -3 -16 -12 -21 -43 -22 -41 -2 -55 8 -45 32 9 24 46 19 46 -6z m62 -21
c-6 -6 -7 0 -4 19 5 21 7 23 10 9 2 -10 0 -22 -6 -28z m38 35 c0 -5 -5 -15
-10 -23 -8 -12 -10 -11 -10 8 0 12 5 22 10 22 6 0 10 -3 10 -7z m43 -13 c-4
-14 0 -20 11 -20 10 0 14 5 11 10 -3 6 -1 10 4 10 17 0 13 -20 -5 -27 -20 -7
-38 11 -31 31 9 23 16 20 10 -4z m89 -5 c-2 -14 -6 -25 -8 -25 -2 0 -4 11 -4
25 0 14 4 25 9 25 4 0 6 -11 3 -25z m48 12 c0 9 7 7 20 -4 24 -21 25 -30 5
-30 -8 0 -15 7 -16 16 0 12 -3 11 -9 -4 l-9 -20 -1 20 -1 20 -9 -20 c-10 -23
-13 -5 -4 20 5 13 8 14 15 3 6 -10 9 -10 9 -1z m50 3 c0 -5 -4 -10 -10 -10 -5
0 -10 5 -10 10 0 6 5 10 10 10 6 0 10 -4 10 -10z m22 -19 c-14 -3 -14 -5 3
-12 19 -7 18 -8 -4 -8 -17 -1 -22 3 -17 15 3 9 6 20 6 25 0 5 6 4 14 -3 12
-11 12 -14 -2 -17z m59 9 c6 0 7 5 4 10 -3 6 -1 10 5 10 7 0 9 -7 6 -16 -3 -9
-6 -21 -6 -27 0 -7 -4 -6 -10 3 -9 13 -11 13 -20 0 -11 -17 -13 0 -3 26 4 11
8 13 11 6 2 -7 8 -12 13 -12z m-295 -27 c-11 -11 -17 4 -9 23 7 18 8 18 11 1
2 -10 1 -21 -2 -24z"/>
<path d="M740 625 c0 -8 7 -15 15 -15 8 0 15 7 15 15 0 8 -7 15 -15 15 -8 0
-15 -7 -15 -15z"/>
</g>
</svg>
