<?xml version='1.0' encoding='utf-8'?>
<svg xmlns="http://www.w3.org/2000/svg" width="1024" height="1024" viewBox="0 0 1024 1024" version="1.1"><defs id="defs6">
    <clipPath clipPathUnits="userSpaceOnUse" id="clipPath18">
      <path d="M 0,0 H 1375 V 650 H 0 Z" id="path16" />
    </clipPath>
    <clipPath clipPathUnits="userSpaceOnUse" id="clipPath74">
      <path d="M 971.795,604.911 H 944.329 742.972 685.608 c -0.306,-0.082 -0.62,-0.153 -0.925,-0.236 v 0 l -0.295,0.236 c -43.55,0 -116.896,-14.21 -126.521,-108.054 v 0 c 0,56.321 -34.051,108.054 -174.844,108.054 v 0 H 180.02 L 148.891,489.003 h 149.003 46.258 17.262 c 32.741,0 47.149,-7.859 47.149,-26.851 v 0 c 0,-19.646 -17.683,-37.323 -56.973,-37.323 v 0 h -70.724 l 8.954,33.746 H 140.719 L 56.91,146.516 h 249.495 c 13.882,0 26.992,0.501 39.403,1.44 v 0 c -2.248,13.665 -36.261,30.193 -48.278,15.128 v 0 c 0,16.092 16.752,21.237 31.262,17.543 v 0 c 14.509,-3.693 20.84,0.924 20.049,11.476 v 0 c -0.791,10.552 -16.488,23.874 -30.47,11.739 v 0 c 9.761,16.884 37.991,12.989 42.21,4.617 v 0 c 2.505,15.828 -24.139,36.801 -51.444,11.871 v 0 c 16.621,39.571 59.885,12.927 72.812,34.559 v 0 c -11.08,-7.914 -24.27,-5.803 -42.474,4.748 v 0 c 37.197,-2.374 58.698,20.248 52.96,27.766 v 0 c -2.415,3.165 -13.22,5.789 -23.017,5.585 v 0 c -5.004,-18.233 -26.042,-30.564 -58.428,-30.564 v 0 h -73.998 l 18.337,68.107 h 66.138 c 32.741,0 49.115,-9.169 49.115,-28.815 v 0 c 0,-0.065 -0.005,-0.128 -0.005,-0.192 v 0 c 14.142,5.848 30.759,7.502 28.388,12.59 v 0 c -7.722,14.017 -24.93,15.037 -28.492,-3.166 v 0 c -5.935,28.491 15.433,38.384 31.789,38.648 v 0 c 10.69,0.173 30.724,10.314 26.645,18.731 v 0 c -4.081,8.417 -25.985,6.726 -32.713,-4.749 v 0 c 1.188,4.749 14.283,20.843 25.721,16.224 v 0 c -7.122,9.893 -40.758,3.957 -42.341,-16.224 v 0 c -2.638,25.853 31.921,43.974 53.29,39.572 v 0 c 21.368,-4.404 17.834,-3.392 26.644,0 v 0 c 0,0 -21.764,10.485 -21.764,18.004 v 0 c 11.234,-3.658 27.815,-5.676 41.618,-2.248 v 0 c -11.936,4.476 -37.661,9.569 -45.107,33.312 v 0 c 16.298,-16.225 33.879,-9.253 40.554,-7.915 v 0 c 7.955,1.595 24.132,3.253 38.201,-3.8 v 0 c 0.33,0.221 0.657,0.445 0.988,0.663 v 0 c -2.941,29.535 5.05,46.941 9.183,51.842 v 0 c 8.404,-15.269 31.177,-44.945 31.177,-44.945 v 0 c 5.664,4.389 8.816,50.836 8.628,57.213 v 0 c 22.286,-19.771 36.504,-65.805 36.542,-87.114 v 0 c 26.149,-10.918 59.674,-35.993 59.674,-35.993 v 0 c 0,0 -6.588,-15.969 37.645,-47.371 v 0 c 44.233,-31.402 67.268,-43.294 68.506,-45.32 v 0 c 1.238,-2.026 -4.877,-51.211 -0.075,-57.552 v 0 c 4.161,-5.492 -14.12,-19.818 -28.497,-21.466 v 0 c -3.968,-0.097 -11.815,6.868 -25.105,23.424 v 0 c -4.757,5.924 -7.386,10.516 -9.95,11.871 v 0 c -1.922,0 -5.878,-3.166 -5.318,-5.111 v 0 c 7.387,-6.595 32.358,-29.929 31.216,-36.729 v 0 l 0.036,0.009 c -4.082,-6.072 -10.353,-5.074 -16.97,-2.574 v 0 c -7.271,2.748 -32.235,30.091 -45.038,41.652 v 0 c -0.107,0.133 -0.223,0.268 -0.374,0.411 v 0 c -9.946,9.45 0.528,13.719 9.102,21.228 v 0 c -5.172,-2.271 -22.75,-15.08 -37.643,-22.5 v 0 c -7.97,-2.93 -17.786,-5.494 -30.043,-4.174 v 0 c -20.108,2.166 -58.715,26.262 -68.544,66.631 v 0 c -4.502,-30.577 22.847,-72.296 48.396,-76.16 v 0 c 2.652,-18.325 24.167,-56.627 51.397,-85.307 v 0 c 20.857,-3.772 42.606,-5.784 65.085,-5.784 v 0 c 68.277,0 121.414,19.493 156.902,51.038 v 0 l -11.244,-41.869 h 249.494 c 157.163,0 218.72,62.211 218.72,139.481 v 0 c 0,47.152 -31.433,79.239 -74.652,90.37 v 0 c 70.065,18.338 107.394,64.83 107.394,120.49 v 0 c 0,56.321 -34.051,108.054 -174.84,108.054 v 0 z M 557.656,491.797 c 0.021,-0.068 0.022,-0.158 -0.015,-0.289 v 0 c 0.003,0.096 0.011,0.193 0.015,0.289 m 225.263,-58.46 c -63.52,23.58 -73.343,26.197 -73.343,39.947 v 0 c 0,1.239 0.237,2.343 0.476,3.443 v 0 c 0.199,0.975 0.496,1.884 0.917,2.71 v 0 c 0.122,0.275 0.246,0.548 0.386,0.813 v 0 c 5.026,8.07 20.653,8.753 31.617,8.753 v 0 h 5.542 149.91 73.371 117.876 32.943 30.572 c 32.748,0 47.152,-7.859 47.152,-26.851 v 0 c 0,-19.646 -17.683,-37.323 -56.975,-37.323 v 0 h -70.72 l 8.954,33.746 H 932.495 L 902.273,346.047 c -17.187,41.148 -60.09,65.381 -119.354,87.29 m 236.443,-110.238 h 53.933 l 14.451,53.934 h 59.112 l -14.452,-53.934 h 53.933 L 1170.5,263.988 h -53.932 l -14.451,-53.933 h -58.83 c 0.177,1.005 0.375,1.999 0.526,3.013 v 0 l 13.644,50.92 h -53.934 z" id="path72" />
    </clipPath>
    <linearGradient x1="0" y1="0" x2="1" y2="0" gradientUnits="userSpaceOnUse" gradientTransform="matrix(1170.529,0,0,-1170.529,295.1572,371.1291)" spreadMethod="pad" id="linearGradient88">
      <stop style="stop-opacity:1;stop-color:#ec1c24" offset="0" id="stop84" />
      <stop style="stop-opacity:1;stop-color:#6a0000" offset="1" id="stop86" />
    </linearGradient>
    <clipPath clipPathUnits="userSpaceOnUse" id="clipPath98">
      <path d="M 0,0 H 1375 V 650 H 0 Z" id="path96" />
    </clipPath>
    <clipPath clipPathUnits="userSpaceOnUse" id="clipPath108">
      <path d="m 659.202,382.169 c 0,0 -6.588,-15.969 37.645,-47.371 v 0 c 44.233,-31.402 67.268,-43.294 68.506,-45.32 v 0 c 1.238,-2.026 -4.877,-51.211 -0.075,-57.552 v 0 c 4.161,-5.492 -14.12,-19.818 -28.497,-21.466 v 0 c -3.968,-0.097 -11.815,6.868 -25.105,23.424 v 0 c -4.757,5.924 -7.386,10.516 -9.95,11.871 v 0 c -1.922,0 -5.878,-3.166 -5.318,-5.111 v 0 c 7.387,-6.595 32.358,-29.929 31.216,-36.729 v 0 l 0.036,0.009 c -4.082,-6.072 -10.353,-5.074 -16.97,-2.574 v 0 c -7.271,2.748 -32.235,30.091 -45.038,41.652 v 0 c -0.107,0.133 -0.223,0.268 -0.374,0.411 v 0 c -9.946,9.45 0.528,13.719 9.102,21.228 v 0 c -5.172,-2.271 -22.75,-15.08 -37.643,-22.5 v 0 c -7.97,-2.93 -17.786,-5.494 -30.043,-4.174 v 0 c -20.108,2.166 -58.715,26.262 -68.544,66.631 v 0 c -4.502,-30.577 22.847,-72.296 48.396,-76.16 v 0 c 2.68,-18.527 24.646,-57.478 52.304,-86.257 v 0 c 20.58,-3.667 42.024,-5.625 64.178,-5.625 v 0 c 68.277,0 121.414,19.493 156.902,51.037 v 0 l -11.244,-41.868 h 249.494 c 157.163,0 218.72,62.21 218.72,139.481 v 0 c 0,44.399 -27.874,75.434 -67.211,88.2 v 0 c -37.606,-7.524 -73.458,-12.514 -107.954,-15.495 v 0 l -9.329,-34.812 h 53.933 L 1170.5,263.988 h -53.932 l -14.451,-53.933 h -58.83 c 0.177,1.005 0.375,1.999 0.526,3.013 v 0 l 13.644,50.92 h -53.934 l 15.839,59.111 h 53.933 l 8.451,31.538 c -61.15,-1.399 -118.396,3.131 -174.145,10.459 v 0 l -5.328,-19.841 c -3.37,8.069 -7.743,15.479 -13.02,22.357 v 0 c -92.538,13.191 -181.665,33.179 -278.613,45.332 v 0 c 23.633,-12.134 48.562,-30.775 48.562,-30.775" id="path106" />
    </clipPath>
    <linearGradient x1="0" y1="0" x2="1" y2="0" gradientUnits="userSpaceOnUse" gradientTransform="matrix(0,177.3292,177.3292,0,927.2801,140.0227)" spreadMethod="pad" id="linearGradient122">
      <stop style="stop-opacity:1;stop-color:#ec1c24" offset="0" id="stop118" />
      <stop style="stop-opacity:1;stop-color:#6a0000" offset="1" id="stop120" />
    </linearGradient>
    <clipPath clipPathUnits="userSpaceOnUse" id="clipPath132">
      <path d="M 118.633,375.548 56.91,145.725 h 249.495 c 13.917,0 27.059,0.503 39.496,1.447 v 0 c -1.025,13.802 -36.123,31.266 -48.371,15.912 v 0 c 0,16.092 16.752,21.237 31.262,17.543 v 0 c 14.509,-3.693 20.84,0.924 20.049,11.476 v 0 c -0.791,10.552 -16.488,23.874 -30.47,11.739 v 0 c 9.761,16.884 37.991,12.989 42.21,4.617 v 0 c 2.505,15.828 -24.139,36.801 -51.444,11.871 v 0 c 16.621,39.571 59.885,12.927 72.812,34.559 v 0 c -11.08,-7.914 -24.27,-5.803 -42.474,4.748 v 0 c 37.197,-2.374 58.698,20.248 52.96,27.766 v 0 c -2.397,3.142 -13.066,5.753 -22.807,5.591 v 0 c -4.602,-18.671 -25.782,-31.361 -58.638,-31.361 v 0 h -73.998 l 18.337,68.106 h 66.138 c 32.406,0 48.767,-8.987 49.1,-28.219 v 0 c 14.144,5.852 30.769,7.505 28.398,12.594 v 0 c -7.722,14.017 -24.93,15.037 -28.492,-3.166 v 0 c -5.935,28.491 15.433,38.384 31.789,38.648 v 0 c 10.69,0.173 30.724,10.314 26.645,18.731 v 0 c -4.081,8.417 -25.985,6.726 -32.713,-4.749 v 0 c 1.188,4.749 14.283,20.843 25.721,16.224 v 0 c -7.122,9.893 -40.758,3.957 -42.341,-16.224 v 0 c -2.638,25.853 31.921,43.974 53.29,39.572 v 0 c 21.368,-4.404 17.834,-3.392 26.644,0 v 0 c 0,0 -21.764,10.485 -21.764,18.004 v 0 c 11.234,-3.658 27.815,-5.676 41.618,-2.248 v 0 c -3.455,1.295 -8.066,2.646 -13.053,4.482 v 0 c -5.073,0.068 -10.189,0.103 -15.323,0.103 v 0 c -97.065,0.001 -205.135,-12.453 -332.353,-47.943" id="path130" />
    </clipPath>
    <linearGradient x1="0" y1="0" x2="1" y2="0" gradientUnits="userSpaceOnUse" gradientTransform="matrix(0,177.3292,177.3292,0,268.1359,140.0227)" spreadMethod="pad" id="linearGradient146">
      <stop style="stop-opacity:1;stop-color:#ec1c24" offset="0" id="stop142" />
      <stop style="stop-opacity:1;stop-color:#6a0000" offset="1" id="stop144" />
    </linearGradient>
    <clipPath clipPathUnits="userSpaceOnUse" id="clipPath156">
      <path d="M 0,0 H 1375 V 650 H 0 Z" id="path154" />
    </clipPath>
  </defs><rect x="0" y="0" width="1024" height="1024" fill="#000000" /><g id="logo" transform="translate(7.833,210.000) scale(0.550000)"><g id="g8" transform="matrix(1.3333333,0,0,-1.3333333,0,866.66667)">
    <g id="g10" />
    <g id="g12">
      <g id="g14" clip-path="url(#clipPath18)">
        <path d="m 66.3362,77.9904 c 7.695,0 12.406,2.983 12.406,8.401 0,3.848 -2.984,6.203 -9.108,6.203 h -13.035 l -3.926,-14.604 z m -4.005,-23.243 c 7.695,0 12.485,3.22 12.485,8.559 0,4.162 -3.69,6.517 -9.658,6.517 h -14.683 l -4.005,-15.076 z m -12.877,46.406 h 21.044 c 12.092,0 17.981,-5.653 17.981,-13.191 0,-7.538 -5.261,-12.407 -12.563,-13.977 4.868,-1.885 8.48,-5.34 8.48,-11.228 0,-9.738 -8.48,-16.569 -23.399,-16.569 h -26.306 z" style="fill:#e6e7e8;fill-opacity:1;fill-rule:nonzero;stroke:none" id="path22" />
        <path d="m 105.7531,101.1535 h 9.737 l -12.406,-46.171 h 28.896 l -2.435,-8.794 h -38.554 z" style="fill:#e6e7e8;fill-opacity:1;fill-rule:nonzero;stroke:none" id="path24" />
        <path d="m 178.5422,68.0178 -3.533,22.222 -15.391,-22.222 z m -5.418,33.528 h 9.266 l 9.344,-55.357 h -9.894 l -2.12,13.27 h -25.991 l -9.187,-13.27 h -10.443 z" style="fill:#e6e7e8;fill-opacity:1;fill-rule:nonzero;stroke:none" id="path26" />
        <path d="m 199.6633,68.6457 c 0,17.668 14.84,33.45 33.215,33.45 10.365,0 17.353,-4.633 21.436,-11.778 l -8.009,-5.418 c -3.298,5.025 -7.303,8.323 -14.527,8.323 -11.778,0 -22.064,-11.306 -22.064,-24.184 0,-9.031 6.203,-14.919 14.919,-14.919 6.203,0 10.286,2.512 14.605,6.282 l 6.36,-6.44 c -5.182,-5.025 -11.621,-8.715 -21.122,-8.715 -14.134,0 -24.813,8.951 -24.813,23.399" style="fill:#e6e7e8;fill-opacity:1;fill-rule:nonzero;stroke:none" id="path28" />
        <path d="m 267.3484,101.1535 h 9.737 l -7.46,-27.796 32.194,27.796 h 13.27 l -27.953,-23.478 14.055,-31.487 h -10.679 l -11.072,25.755 -13.27,-11.149 -3.847,-14.606 h -9.737 z" style="fill:#e6e7e8;fill-opacity:1;fill-rule:nonzero;stroke:none" id="path30" />
        <path d="m 331.341,55.6896 7.303,6.046 c 4.475,-5.104 9.501,-7.774 16.568,-7.774 6.125,0 10.6,3.063 10.6,7.618 0,3.298 -2.277,5.26 -10.129,8.323 -8.402,3.376 -14.134,7.145 -14.134,14.762 0,10.365 9.344,17.274 21.122,17.274 9.109,0 15.705,-3.298 20.18,-8.244 l -6.753,-6.596 c -4.161,4.083 -8.402,6.281 -14.133,6.281 -6.439,0 -10.208,-3.533 -10.208,-7.223 0,-3.533 2.748,-5.261 10.679,-8.403 8.402,-3.297 13.662,-7.145 13.662,-14.761 0,-10.758 -9.815,-17.589 -21.436,-17.589 -10.365,0 -18.296,3.612 -23.321,10.286" style="fill:#e6e7e8;fill-opacity:1;fill-rule:nonzero;stroke:none" id="path32" />
        <path d="m 404.9939,92.2023 h -17.51 l 2.434,8.951 h 44.6 l -2.434,-8.951 h -17.432 l -12.407,-46.014 h -9.658 z" style="fill:#e6e7e8;fill-opacity:1;fill-rule:nonzero;stroke:none" id="path34" />
        <path d="m 461.6867,68.0178 -3.533,22.222 -15.391,-22.222 z m -5.418,33.528 h 9.266 l 9.344,-55.357 h -9.894 l -2.12,13.27 h -25.991 l -9.187,-13.27 h -10.443 z" style="fill:#e6e7e8;fill-opacity:1;fill-rule:nonzero;stroke:none" id="path36" />
        <path d="m 497.3342,101.1535 h 9.737 l -12.406,-46.171 h 28.896 l -2.435,-8.794 h -38.554 z" style="fill:#e6e7e8;fill-opacity:1;fill-rule:nonzero;stroke:none" id="path38" />
        <path d="m 545.8596,101.1535 h 9.737 l -12.406,-46.171 h 28.896 l -2.435,-8.794 h -38.554 z" style="fill:#e6e7e8;fill-opacity:1;fill-rule:nonzero;stroke:none" id="path40" />
        <path d="m 594.9352,101.1535 h 9.737 l -14.762,-54.965 h -9.737 z" style="fill:#e6e7e8;fill-opacity:1;fill-rule:nonzero;stroke:none" id="path42" />
        <path d="m 656.2595,77.4406 c 0,9.029 -5.811,15.782 -15.626,15.782 -12.72,0 -21.593,-12.092 -21.593,-23.32 0,-9.108 5.81,-15.783 15.625,-15.783 12.721,0 21.594,12.092 21.594,23.321 m -47.27,-8.088 c 0,16.647 13.584,32.743 32.586,32.743 14.763,0 24.735,-10.443 24.735,-24.105 0,-16.648 -13.585,-32.744 -32.665,-32.744 -14.762,0 -24.656,10.443 -24.656,24.106" style="fill:#e6e7e8;fill-opacity:1;fill-rule:nonzero;stroke:none" id="path44" />
        <path d="m 684.9191,101.1535 h 8.952 l 18.609,-38.868 10.522,38.868 h 9.501 l -14.762,-54.965 h -8.088 l -19.237,39.968 -10.679,-39.968 h -9.58 z" style="fill:#e6e7e8;fill-opacity:1;fill-rule:nonzero;stroke:none" id="path46" />
        <path d="m 787.0739,77.9904 c 7.695,0 12.407,2.983 12.407,8.401 0,3.848 -2.984,6.203 -9.108,6.203 h -13.035 l -3.926,-14.604 z m -4.004,-23.243 c 7.695,0 12.484,3.22 12.484,8.559 0,4.162 -3.69,6.517 -9.658,6.517 h -14.683 l -4.004,-15.076 z m -12.878,46.406 h 21.044 c 12.093,0 17.982,-5.653 17.982,-13.191 0,-7.538 -5.261,-12.407 -12.564,-13.977 4.868,-1.885 8.481,-5.34 8.481,-11.228 0,-9.738 -8.481,-16.569 -23.4,-16.569 h -26.305 z" style="fill:#e6e7e8;fill-opacity:1;fill-rule:nonzero;stroke:none" id="path48" />
        <path d="m 863.4743,77.4406 c 0,9.029 -5.811,15.782 -15.625,15.782 -12.721,0 -21.594,-12.092 -21.594,-23.32 0,-9.108 5.811,-15.783 15.626,-15.783 12.721,0 21.593,12.092 21.593,23.321 m -47.27,-8.088 c 0,16.647 13.584,32.743 32.586,32.743 14.763,0 24.735,-10.443 24.735,-24.105 0,-16.648 -13.584,-32.744 -32.665,-32.744 -14.762,0 -24.656,10.443 -24.656,24.106" style="fill:#e6e7e8;fill-opacity:1;fill-rule:nonzero;stroke:none" id="path50" />
        <path d="m 897.7888,74.6916 -12.643,26.462 h 10.836 l 8.795,-19.63 18.06,19.63 h 12.406 l -26.383,-27.64 13.034,-27.325 h -10.835 l -9.266,20.494 -18.845,-20.494 h -12.406 z" style="fill:#e6e7e8;fill-opacity:1;fill-rule:nonzero;stroke:none" id="path52" />
        <path d="m 945.529,101.1535 h 9.736 l -14.761,-54.965 h -9.737 z" style="fill:#e6e7e8;fill-opacity:1;fill-rule:nonzero;stroke:none" id="path54" />
        <path d="m 969.8698,101.1535 h 8.951 l 18.611,-38.868 10.5212,38.868 h 9.501 l -14.762,-54.965 h -8.0882 l -19.237,39.968 -10.68,-39.968 h -9.579 z" style="fill:#e6e7e8;fill-opacity:1;fill-rule:nonzero;stroke:none" id="path56" />
        <path d="m 1021.143,68.881 c 0,17.04 14.526,33.215 34.078,33.215 11.543,0 18.061,-4.633 21.751,-9.736 l -7.223,-6.125 c -3.22,3.847 -7.539,6.988 -15.234,6.988 -13.27,0 -23.243,-11.542 -23.243,-24.028 0,-9.658 6.753,-15.154 15.705,-15.154 4.946,0 8.794,1.335 11.621,2.826 l 3.376,11.621 h -14.055 l 2.277,8.403 h 23.399 l -7.459,-26.305 c -5.575,-3.298 -11.778,-5.34 -19.788,-5.34 -12.877,0 -25.205,7.931 -25.205,23.635" style="fill:#e6e7e8;fill-opacity:1;fill-rule:nonzero;stroke:none" id="path58" />
        <path d="m 1120.907,74.2209 c 6.988,0 10.208,3.141 10.208,7.303 0,1.177 -0.472,2.355 -1.335,3.218 -1.257,1.257 -3.455,1.728 -5.497,1.728 h -3.455 l -3.219,-12.249 z m -14.448,26.933 h 18.453 c 10.129,0 16.332,-1.963 20.415,-6.046 2.905,-2.906 4.319,-6.753 4.319,-11.072 0,-13.741 -10.365,-22.928 -27.797,-22.928 h -7.773 l -4.005,-14.919 h -18.374 z" style="fill:#ec1c24;fill-opacity:1;fill-rule:nonzero;stroke:none" id="path60" />
        <path d="m 1158.675,101.1535 h 18.374 l -10.521,-39.261 h 25.047 l -4.24,-15.704 h -43.422 z" style="fill:#ec1c24;fill-opacity:1;fill-rule:nonzero;stroke:none" id="path62" />
        <path d="m 1193.538,64.8771 c 0,2.826 0.393,5.889 1.179,8.873 l 7.381,27.403 h 18.687 l -7.694,-28.581 c -0.393,-1.571 -0.629,-3.062 -0.629,-4.319 0,-4.554 2.67,-6.91 7.538,-6.91 2.277,0 4.397,0.785 5.89,2.277 1.648,1.65 2.748,3.77 3.925,8.01 l 7.931,29.523 h 18.688 l -8.715,-32.35 c -1.963,-7.303 -4.79,-12.642 -8.638,-16.489 -5.183,-5.183 -13.034,-7.225 -21.75,-7.225 -15.47,0 -23.793,7.382 -23.793,19.788" style="fill:#ec1c24;fill-opacity:1;fill-rule:nonzero;stroke:none" id="path64" />
        <path d="m 1247.09,55.0617 10.522,12.563 c 6.282,-5.26 12.721,-7.773 18.532,-7.773 2.355,0 4.004,0.863 4.004,2.434 0,1.727 -1.021,2.277 -9.03,5.261 -10.208,3.769 -14.998,7.381 -14.998,15.469 0,10.6 9.737,19.237 24.735,19.237 9.815,0 18.531,-3.14 24.499,-8.245 l -10.523,-12.563 c -4.161,3.377 -10.051,6.125 -15.861,6.125 -2.356,0 -4.004,-0.628 -4.004,-2.198 0,-1.65 1.178,-1.963 8.794,-4.79 9.344,-3.456 15.311,-7.381 15.311,-15.784 0,-11.071 -9.108,-19.709 -24.89,-19.709 -10.915,0 -20.416,3.927 -27.091,9.973" style="fill:#ec1c24;fill-opacity:1;fill-rule:nonzero;stroke:none" id="path66" />
      </g>
    </g>
    <g id="g68">
      <g id="g70" clip-path="url(#clipPath74)">
        <g id="g76">
          <g id="g82">
            <path d="M 0,0 H 1375 V 650 H 0 Z" style="fill:url(#linearGradient88);stroke:none" id="path90" />
          </g>
        </g>
      </g>
    </g>
    <g id="g92">
      <g id="g94" clip-path="url(#clipPath98)">
        <path d="m 864.4453,439.0307 -2.082,0.206 c 0.448,-0.358 0.92,-0.705 1.363,-1.065 z" style="fill:#d10024;fill-opacity:1;fill-rule:nonzero;stroke:none" id="path100" />
      </g>
    </g>
    <g id="g102">
      <g id="g104" clip-path="url(#clipPath108)">
        <g id="g110">
          <g id="g116">
            <path d="M 0,0 H 1375 V 650 H 0 Z" style="fill:url(#linearGradient122);stroke:none" id="path124" />
          </g>
        </g>
      </g>
    </g>
    <g id="g126">
      <g id="g128" clip-path="url(#clipPath132)">
        <g id="g134">
          <g id="g140">
            <path d="M 0,0 H 1375 V 650 H 0 Z" style="fill:url(#linearGradient146);stroke:none" id="path148" />
          </g>
        </g>
      </g>
    </g>
    <g id="g150">
      <g id="g152" clip-path="url(#clipPath156)">
        <path d="m 740.0053,288.1818 c -6.5,0.102 -16.815,-11.886 -2.246,-23.542 -4.482,7.809 3.902,10.917 6.704,12.898 2.803,1.982 2.042,10.542 -4.458,10.644" style="fill:#ec1c24;fill-opacity:1;fill-rule:nonzero;stroke:none" id="path158" />
        <path d="m 710.4145,307.9443 c -6.145,4.988 -23.296,14.834 -26.624,17.264 -3.329,2.43 -17.662,5.367 -26.441,14.356 3.833,-6.617 23.434,-15.381 25.866,-16.404 2.431,-1.023 20.608,-13.875 22.464,-14.77 1.856,-0.895 16.577,-11.894 19.267,-13.94 2.689,-2.046 2.656,-6.268 2.656,-6.268 0,0 1.502,3.774 0.861,6.334 -0.641,2.559 -11.904,8.44 -18.049,13.428" style="fill:#ec1c24;fill-opacity:1;fill-rule:nonzero;stroke:none" id="path160" />
        <path d="m 547.06,317.3508 c 2.158,-30.779 31.204,-75.611 85.773,-64.437 -45.886,-3.395 -79.362,27.857 -85.773,64.437" style="fill:#ec1c24;fill-opacity:1;fill-rule:nonzero;stroke:none" id="path162" />
        <path d="m 434.5602,152.5134 c -34.823,77.032 -1.319,196.273 72.449,239.538 -52.4,-18.731 -125.211,-139.291 -72.449,-239.538" style="fill:#ec1c24;fill-opacity:1;fill-rule:nonzero;stroke:none" id="path164" />
        <path d="m 524.6618,304.5815 c -21.632,-38.509 -6.907,-133.737 80.198,-158.106 -57.774,16.224 -101.83,89.431 -80.198,158.106" style="fill:#ec1c24;fill-opacity:1;fill-rule:nonzero;stroke:none" id="path166" />
        <path d="m 603.0814,379.0976 c -4.517,0.521 -17.446,-4.221 -17.604,15.988 -2.914,-10.879 0.365,-20.502 10.105,-19.235 2.067,0.269 5.148,-0.619 8.782,-2.235 -10.251,-10.578 7.394,-18.53 16.603,-9.518 10.236,-6.756 20.221,-14.538 24.007,-17.895 -15.034,17.068 -37.376,32.374 -41.893,32.895" style="fill:#ec1c24;fill-opacity:1;fill-rule:nonzero;stroke:none" id="path168" />
        <path d="m 523.3499,480.9726 c 3.957,-5.012 16.356,-36.142 10.552,-56.983 6.068,10.553 3.067,42.572 -10.783,62.754 -1.36,-2.138 -7.381,-12.483 -6.281,-21.475 -0.108,2.733 1.704,11.238 6.512,15.704" style="fill:#ec1c24;fill-opacity:1;fill-rule:nonzero;stroke:none" id="path170" />
        <path d="m 516.8865,464.7814 c -0.024,0.161 -0.029,0.325 -0.049,0.487 0.007,-0.191 0.023,-0.356 0.049,-0.487" style="fill:#ec1c24;fill-opacity:1;fill-rule:nonzero;stroke:none" id="path172" />
      </g>
    </g>
  </g></g><g id="boxing_timer" transform="translate(179.200,625.750) scale(0.650000)"><g aria-label="BOXING TIMER" id="text2" style="font-style:italic;font-weight:700;font-size:84px;font-family:Lato;letter-spacing:2;text-anchor:middle;fill:#9a9a9a">
    <path d="m 223.21192,145 7.476,-60.732 h 19.488 q 5.04,0 8.61,1.008 3.612,0.966 5.88,2.772 2.31,1.806 3.402,4.368 1.092,2.562 1.092,5.712 0,2.604 -0.714,4.998 -0.672,2.352 -2.142,4.368 -1.47,2.016 -3.738,3.612 -2.268,1.596 -5.418,2.646 5.166,1.302 7.686,4.242 2.52,2.898 2.52,7.392 0,4.2 -1.554,7.812 -1.554,3.57 -4.494,6.216 -2.94,2.604 -7.182,4.116 -4.2,1.47 -9.534,1.47 z m 14.154,-26.754 -2.226,18.27 h 10.332 q 2.898,0 4.998,-0.798 2.142,-0.798 3.486,-2.226 1.344,-1.47 1.974,-3.486 0.672,-2.058 0.672,-4.494 0,-3.318 -2.1,-5.292 -2.1,-1.974 -6.888,-1.974 z m 0.924,-7.518 h 8.064 q 5.628,0 8.652,-2.646 3.066,-2.646 3.066,-8.106 0,-3.822 -2.184,-5.544 -2.142,-1.764 -6.72,-1.764 h -8.652 z" id="path10" />
    <path d="m 334.57995,110.56 q 0,5.04 -1.134,9.618 -1.092,4.536 -3.15,8.442 -2.058,3.906 -4.998,7.056 -2.94,3.15 -6.594,5.376 -3.612,2.226 -7.854,3.444 -4.242,1.176 -8.904,1.176 -5.796,0 -10.416,-2.058 -4.62,-2.058 -7.896,-5.67 -3.234,-3.612 -4.956,-8.526 -1.722,-4.914 -1.722,-10.668 0,-5.04 1.092,-9.576 1.134,-4.578 3.192,-8.484 2.1,-3.906 4.998,-7.056 2.94,-3.15 6.552,-5.376 3.654,-2.268 7.896,-3.444 4.242,-1.218 8.946,-1.218 5.796,0 10.416,2.058 4.62,2.058 7.854,5.67 3.234,3.612 4.956,8.568 1.722,4.914 1.722,10.668 z m -11.172,0.252 q 0,-4.116 -1.05,-7.476 -1.008,-3.36 -2.982,-5.754 -1.932,-2.394 -4.746,-3.696 -2.814,-1.302 -6.342,-1.302 -4.536,0 -8.274,1.848 -3.696,1.848 -6.342,5.25 -2.646,3.402 -4.116,8.19 -1.428,4.788 -1.428,10.626 0,4.116 1.008,7.476 1.008,3.36 2.94,5.754 1.932,2.352 4.704,3.654 2.814,1.26 6.384,1.26 4.578,0 8.316,-1.848 3.738,-1.848 6.384,-5.208 2.646,-3.36 4.074,-8.106 1.47,-4.788 1.47,-10.668 z" id="path12" />
    <path d="m 356.40396,112.576 -13.692,-28.308 h 9.87 q 1.092,0 1.596,0.336 0.504,0.294 0.84,1.05 l 9.282,20.916 q 0.21,-0.42 0.462,-0.84 0.252,-0.42 0.546,-0.882 l 12.936,-19.068 q 1.008,-1.512 2.478,-1.512 h 11.382 l -20.664,27.804 15.246,32.928 h -9.786 q -1.092,0 -1.722,-0.588 -0.588,-0.588 -0.924,-1.302 l -10.5,-24.276 q -0.21,0.336 -0.42,0.672 -0.168,0.336 -0.378,0.63 l -15.708,22.974 q -0.714,1.05 -1.596,1.47 -0.84,0.42 -1.806,0.42 h -10.878 z" id="path14" />
    <path d="m 405.65402,145 h -10.962 l 7.392,-60.732 h 10.962 z" id="path16" />
    <path d="m 433.56798,84.268 q 0.714,0 1.176,0.084 0.504,0.042 0.882,0.252 0.378,0.168 0.672,0.504 0.294,0.336 0.63,0.924 l 23.646,41.454 q 0.084,-1.218 0.168,-2.352 0.126,-1.176 0.252,-2.184 l 4.746,-38.682 h 9.618 l -7.476,60.732 h -5.628 q -1.26,0 -2.1,-0.42 -0.798,-0.462 -1.512,-1.47 l -23.52,-41.454 q -0.084,1.008 -0.168,1.974 -0.084,0.924 -0.168,1.764 l -4.788,39.606 h -9.618 l 7.476,-60.732 h 5.712 z" id="path18" />
    <path d="m 509.40403,136.978 q 3.402,0 6.006,-0.63 2.604,-0.672 4.998,-1.848 l 1.428,-11.592 h -6.72 q -1.05,0 -1.596,-0.546 -0.504,-0.588 -0.42,-1.428 l 0.714,-6.216 h 18.9 l -3.024,24.402 q -4.62,3.36 -9.954,4.956 -5.334,1.596 -12.18,1.596 -5.586,0 -10.164,-2.016 -4.536,-2.016 -7.812,-5.586 -3.234,-3.612 -4.998,-8.526 -1.764,-4.956 -1.764,-10.794 0,-5.124 1.134,-9.702 1.134,-4.62 3.192,-8.526 2.1,-3.906 5.04,-7.014 2.94,-3.15 6.552,-5.334 3.612,-2.226 7.812,-3.402 4.242,-1.176 8.862,-1.176 3.696,0 6.678,0.672 3.024,0.63 5.46,1.764 2.436,1.134 4.368,2.646 1.932,1.512 3.444,3.192 l -3.528,4.536 q -0.84,1.176 -2.058,1.47 -1.218,0.252 -2.478,-0.588 -1.218,-0.798 -2.436,-1.554 -1.218,-0.798 -2.688,-1.428 -1.428,-0.63 -3.276,-1.008 -1.848,-0.378 -4.326,-0.378 -4.536,0 -8.316,1.848 -3.78,1.806 -6.51,5.166 -2.73,3.318 -4.242,8.022 -1.512,4.662 -1.512,10.416 0,4.368 1.092,7.812 1.134,3.444 3.15,5.838 2.016,2.394 4.83,3.696 2.856,1.26 6.342,1.26 z" id="path20" />
    <path d="m 606.05609,84.268 -1.134,8.946 h -16.59 l -6.384,51.786 h -10.836 l 6.3,-51.786 h -16.674 l 1.092,-8.946 z" id="path22" />
    <path d="m 619.26999,145 h -10.962 l 7.392,-60.732 h 10.962 z" id="path24" />
    <path d="m 665.70598,120.724 q 0.378,1.092 0.672,2.226 0.294,1.134 0.588,2.31 0.504,-1.176 1.092,-2.31 0.588,-1.134 1.26,-2.226 l 21.084,-34.692 q 0.504,-0.546 0.882,-0.882 0.42,-0.378 0.84,-0.546 0.42,-0.21 0.924,-0.252 0.504,-0.084 1.218,-0.084 h 8.274 l -7.476,60.732 h -9.576 l 4.872,-39.564 q 0.126,-1.05 0.336,-2.31 0.252,-1.302 0.588,-2.646 l -20.874,34.608 q -0.714,1.176 -1.806,1.764 -1.05,0.588 -2.31,0.588 h -1.512 q -1.26,0 -2.226,-0.588 -0.924,-0.588 -1.344,-1.764 l -12.516,-34.566 q -0.042,1.302 -0.126,2.52 -0.084,1.218 -0.168,2.226 l -4.788,39.732 h -9.618 l 7.476,-60.732 h 8.19 q 0.714,0 1.176,0.084 0.504,0.042 0.882,0.252 0.378,0.168 0.714,0.546 0.336,0.336 0.714,0.882 l 12.558,34.692 z" id="path26" />
    <path d="m 752.71395,84.268 -1.092,8.694 h -24.444 l -2.1,17.262 h 19.194 l -1.05,8.358 h -19.194 l -2.184,17.724 h 24.528 l -1.092,8.694 h -35.448 l 7.476,-60.732 z" id="path28" />
    <path d="m 770.67402,121.06 -2.94,23.94 h -10.836 l 7.392,-60.732 h 17.262 q 5.25,0 8.988,1.134 3.78,1.092 6.174,3.108 2.394,1.974 3.528,4.746 1.134,2.772 1.134,6.09 0,3.528 -1.008,6.636 -0.966,3.066 -2.856,5.586 -1.848,2.52 -4.536,4.41 -2.646,1.89 -6.048,2.94 1.932,1.218 3.108,3.444 l 10.836,22.638 h -9.786 q -2.814,0 -3.738,-2.184 l -8.904,-19.698 q -0.504,-1.092 -1.26,-1.554 -0.714,-0.504 -2.268,-0.504 z m 3.486,-28.392 -2.52,20.622 h 6.258 q 3.276,0 5.628,-0.924 2.394,-0.966 3.948,-2.604 1.554,-1.68 2.31,-3.906 0.756,-2.226 0.756,-4.788 0,-3.948 -2.478,-6.174 -2.436,-2.226 -7.518,-2.226 z" id="path30" />
  </g></g></svg>